<?xml version="1.0" encoding="utf-8"?>
<!-- Generator: Adobe Illustrator 24.1.2, SVG Export Plug-In . SVG Version: 6.00 Build 0)  -->
<svg version="1.1" id="Calque_1" xmlns="http://www.w3.org/2000/svg" xmlns:xlink="http://www.w3.org/1999/xlink" x="0px" y="0px"
	 viewBox="0 0 250 46.6" style="enable-background:new 0 0 250 46.6;" xml:space="preserve">
<style type="text/css">
	.st0{fill:#1D1D1B;}
</style>
<g id="_x34_09599fb-89aa-4ddd-9c19-604f11e9ffd0" transform="matrix(4.357298631868611,0,0,4.357298631868611,127.58696443664917,-10.718954323777375)">
	<path d="M-13.5,8.7L-13.5,8.7L-13.5,8.7c0-0.1-0.1-0.3-0.1-0.5l0,0l0,0c0-0.2,0.1-0.8,0.2-1.8l0,0l0,0c0.1-1,0.2-1.8,0.2-2.4l0,0
		l0,0c0-0.1,0-0.3,0-0.6l0,0l0,0c0.4,0,0.6,0.1,0.7,0.3l0,0l0,0c0,0.1,0.1,0.2,0.1,0.3l0,0l0,0c0,0.1,0,0.2,0,0.4l0,0l0,0
		c0,0.2-0.1,0.8-0.2,1.9l0,0l0,0c-0.2,1.1-0.2,1.9-0.2,2.4l0,0l0,0c0,0,0.1,0,0.1,0l0,0l0,0c1,0,1.8-0.1,2.3-0.2l0,0l0,0
		c0,0.3-0.1,0.5-0.3,0.6l0,0l0,0c-0.2,0.2-0.4,0.2-0.6,0.2l0,0l0,0c-0.1,0-0.3,0-0.6,0l0,0l0,0c-0.3,0-0.7,0-1,0l0,0l0,0
		c-0.3,0-0.7,0-1,0.1l0,0l0,0C-13.9,9-13.7,8.8-13.5,8.7z M-8.8,6.3L-8.8,6.3L-8.8,6.3C-9,6.5-9.1,6.8-9.1,7l0,0l0,0
		c-0.1,0.2-0.1,0.5-0.1,0.7l0,0l0,0c0,0.2,0.1,0.4,0.2,0.6l0,0l0,0C-9,8.5-8.9,8.6-8.7,8.6l0,0l0,0c0.3,0,0.5-0.1,0.8-0.4l0,0l0,0
		c0.2-0.3,0.4-0.7,0.5-1.1l0,0l0,0c0.1-0.4,0.2-0.8,0.2-1.2l0,0l0,0c0-0.4,0-0.6,0-0.9l0,0l0,0C-7.1,5-7,5-7,5l0,0l0,0
		c0.4,0,0.6,0.2,0.6,0.6l0,0l0,0c0,0.1-0.1,0.5-0.2,1.1l0,0l0,0c-0.1,0.6-0.2,1.2-0.2,1.6l0,0l0,0c0,0.4,0.1,0.7,0.2,1l0,0l0,0
		C-6.8,9.3-7,9.2-7.2,8.9l0,0l0,0c-0.1-0.2-0.2-0.5-0.2-0.9l0,0l0,0c0-0.1,0-0.2,0-0.4l0,0l0,0C-7.5,8.1-7.7,8.5-8,8.8l0,0l0,0
		c-0.3,0.3-0.6,0.4-1,0.4l0,0l0,0c-0.3,0-0.6-0.1-0.8-0.4l0,0l0,0c-0.2-0.2-0.3-0.6-0.3-1l0,0l0,0C-10,7.4-10,7-9.8,6.6l0,0l0,0
		c0.2-0.4,0.4-0.7,0.7-1l0,0l0,0C-8.8,5.3-8.4,5.2-8,5.2l0,0l0,0c0.2,0,0.4,0,0.6,0.1l0,0l0,0C-7.8,5.3-8,5.5-8.3,5.7l0,0l0,0
		C-8.5,5.8-8.7,6.1-8.8,6.3z M-1.6,4.1L-1.6,4.1L-1.6,4.1L-1.6,4.1C-1.6,4.4-1.7,5-1.8,6l0,0l0,0C-1.9,7-2,7.8-2,8.5l0,0l0,0
		c0,0.3,0,0.5,0,0.7l0,0l0,0c-0.1,0-0.2,0-0.2,0l0,0l0,0c-0.2,0-0.4,0-0.5-0.1l0,0l0,0C-2.7,9-2.8,8.8-2.8,8.6l0,0l0,0
		c0-0.2,0.1-0.9,0.2-2l0,0l0,0c0.2-1.1,0.2-1.9,0.2-2.4l0,0l0,0c0-0.5,0-0.8-0.1-1l0,0l0,0c0.2,0,0.3,0.1,0.4,0.2l0,0l0,0
		c0.1,0.1,0.2,0.2,0.3,0.4l0,0l0,0c0.4-0.2,0.8-0.3,1.2-0.3l0,0l0,0c0.4,0,0.8,0.1,1.1,0.4l0,0l0,0C0.9,4.1,1,4.5,1,4.9l0,0l0,0
		c0,0.5-0.2,1-0.6,1.4l0,0l0,0C0,6.7-0.5,6.9-1.1,6.9l0,0l0,0c-0.1,0-0.3,0-0.4,0l0,0l0-0.2l0,0c0.3,0,0.6,0,0.8-0.1l0,0l0,0
		c0.2-0.1,0.4-0.2,0.5-0.4l0,0l0,0C0.1,5.8,0.2,5.4,0.2,5l0,0l0,0c0-0.3-0.1-0.5-0.3-0.7l0,0l0,0C-0.2,4.1-0.5,4-0.9,4l0,0l0,0
		C-1.1,4-1.3,4-1.6,4.1z M2.6,6.3L2.6,6.3L2.6,6.3C2.4,6.5,2.3,6.8,2.2,7l0,0l0,0C2.2,7.3,2.1,7.5,2.1,7.8l0,0l0,0
		c0,0.2,0.1,0.4,0.2,0.6l0,0l0,0c0.1,0.2,0.2,0.2,0.4,0.2l0,0l0,0c0.3,0,0.5-0.1,0.8-0.4l0,0l0,0C3.7,7.9,3.9,7.5,4,7.1l0,0l0,0
		c0.1-0.4,0.2-0.8,0.2-1.2l0,0l0,0c0-0.4,0-0.6,0-0.9l0,0l0,0c0.1,0,0.2,0,0.2,0l0,0l0,0C4.8,5,5,5.2,5,5.6l0,0l0,0
		c0,0.1-0.1,0.5-0.2,1.1l0,0l0,0C4.7,7.4,4.7,7.9,4.7,8.3l0,0l0,0c0,0.4,0.1,0.7,0.2,1l0,0l0,0C4.6,9.3,4.4,9.2,4.2,8.9l0,0l0,0
		C4.1,8.7,4,8.5,4,8.1l0,0l0,0C4,8,4,7.9,4,7.7l0,0l0,0C3.9,8.1,3.7,8.5,3.4,8.8l0,0l0,0C3,9.1,2.7,9.2,2.4,9.2l0,0l0,0
		c-0.3,0-0.6-0.1-0.8-0.4l0,0l0,0c-0.2-0.2-0.3-0.6-0.3-1l0,0l0,0c0-0.4,0.1-0.8,0.2-1.2l0,0l0,0c0.2-0.4,0.4-0.7,0.7-1l0,0l0,0
		C2.6,5.3,3,5.2,3.4,5.2l0,0l0,0c0.2,0,0.4,0,0.6,0.1l0,0l0,0C3.6,5.3,3.4,5.5,3.1,5.7l0,0l0,0C2.9,5.8,2.7,6.1,2.6,6.3z M9.4,6
		L9.4,6L9.4,6c0,0.2,0,0.6-0.1,1.2l0,0l0,0c-0.1,0.6-0.1,1-0.1,1.2l0,0l0,0c0,0.3,0,0.4,0.1,0.5l0,0l0,0C9.3,9,9.4,9.1,9.6,9.2l0,0
		l0,0c-0.1,0-0.2,0-0.3,0l0,0l0,0C9,9.2,8.8,9.2,8.6,9l0,0l0,0C8.5,8.9,8.4,8.7,8.4,8.4l0,0l0,0c0-0.2,0-0.5,0.1-1.1l0,0l0,0
		c0.1-0.5,0.1-0.9,0.1-1.2l0,0l0,0c0-0.3-0.1-0.5-0.3-0.5l0,0l0,0c-0.3,0-0.6,0.3-1,0.8l0,0l0,0C7.1,7,7,7.6,7,8.4l0,0l0,0
		c0,0.3,0,0.5,0,0.7l0,0l0,0c-0.1,0-0.2,0-0.2,0l0,0l0,0c-0.4,0-0.6-0.2-0.6-0.6l0,0l0,0c0-0.1,0.1-0.5,0.2-1.1l0,0l0,0
		c0.1-0.6,0.1-1.2,0.1-1.5l0,0l0,0c0-0.4,0-0.7-0.1-1.1l0,0l0,0c0.3,0.1,0.5,0.3,0.6,0.5l0,0l0,0C7,5.5,7.1,5.7,7.1,6l0,0l0,0
		c0,0.3,0,0.6-0.1,0.9l0,0l0,0c0.2-0.5,0.4-1,0.7-1.4l0,0l0,0C8.1,5.2,8.4,5,8.7,5l0,0l0,0C9.2,5,9.4,5.3,9.4,6z M12.9,5.2L12.9,5.2
		L12.9,5.2c0,0.2,0,0.3-0.1,0.4l0,0l0,0c-0.1,0.1-0.2,0.1-0.3,0.1l0,0h-0.5l0,0c0,0.1-0.1,0.4-0.1,0.9l0,0l0,0
		c-0.2,0.9-0.2,1.6-0.2,2l0,0l0,0c0,0.5,0,0.8,0.1,0.9l0,0l0,0c-0.3-0.1-0.5-0.3-0.6-0.5l0,0l0,0c-0.1-0.2-0.2-0.5-0.2-0.7l0,0l0,0
		c0-0.3,0-0.6,0.1-0.8l0,0l0,0c0-0.3,0.1-0.6,0.2-0.9l0,0l0,0c0.1-0.4,0.1-0.6,0.1-0.8l0,0l0,0c-0.3,0-0.5,0.1-0.8,0.2l0,0l0,0
		c0-0.1,0-0.1,0-0.2l0,0l0,0c0-0.2,0.1-0.4,0.2-0.5l0,0l0,0c0.2-0.1,0.4-0.1,0.7-0.1l0,0l0,0c0-0.4,0.1-0.6,0.1-0.8l0,0l0,0
		c0-0.2,0-0.3,0-0.4l0,0l0,0c0-0.1,0-0.2,0-0.2l0,0l0,0c0.2,0,0.4,0.1,0.5,0.3l0,0l0,0C12,4.2,12,4.4,12,4.7l0,0l0,0
		c0,0.1,0,0.3,0,0.5l0,0l0,0c0.4,0,0.7-0.1,0.9-0.2l0,0l0,0C12.9,5.1,12.9,5.1,12.9,5.2z M14.2,6.9L14.2,6.9c0.2-0.5,0.4-1,0.7-1.4
		l0,0l0,0C15.3,5.2,15.6,5,15.9,5l0,0l0,0c0.3,0,0.5,0.1,0.6,0.3l0,0l0,0c0.1,0.2,0.2,0.4,0.2,0.7l0,0l0,0c0,0.3,0,0.7-0.1,1.3l0,0
		l0,0c-0.1,0.5-0.1,0.9-0.1,1.2l0,0l0,0c0,0.2,0,0.4,0.1,0.5l0,0l0,0c0.1,0.1,0.2,0.2,0.3,0.3l0,0l0,0c-0.1,0-0.1,0-0.3,0l0,0l0,0
		c-0.3,0-0.5-0.1-0.7-0.2l0,0l0,0c-0.1-0.1-0.2-0.3-0.2-0.7l0,0l0,0c0-0.2,0-0.5,0.1-1.1l0,0l0,0c0.1-0.5,0.1-0.9,0.1-1.2l0,0l0,0
		c0-0.3-0.1-0.5-0.3-0.5l0,0l0,0c-0.1,0-0.3,0.1-0.4,0.2l0,0l0,0C15,6,14.9,6.2,14.7,6.4l0,0l0,0c-0.1,0.2-0.3,0.5-0.4,0.9l0,0l0,0
		c-0.1,0.4-0.1,0.7-0.1,1.1l0,0l0,0c0,0.3,0,0.6,0,0.8l0,0l0,0c-0.1,0-0.2,0-0.2,0l0,0l0,0c-0.2,0-0.4,0-0.5-0.1l0,0l0,0
		c-0.1-0.1-0.2-0.2-0.2-0.5l0,0l0,0c0-0.2,0-0.6,0.1-1.2l0,0l0,0c0.3-1.8,0.4-3.1,0.4-4.1l0,0l0,0c0-0.4,0-0.7-0.1-0.8l0,0l0,0
		c0.3,0.1,0.5,0.3,0.6,0.4l0,0l0,0c0.1,0.2,0.2,0.5,0.2,0.8l0,0l0,0c0,0.2,0,0.7-0.1,1.5l0,0l0,0C14.3,6,14.3,6.5,14.2,6.9L14.2,6.9
		z M19.7,5.3L19.7,5.3L19.7,5.3c-0.3,0-0.5,0.2-0.7,0.5l0,0l0,0c-0.2,0.3-0.3,0.7-0.4,1.2l0,0h0.2l0,0c0.3,0,0.5,0,0.7-0.1l0,0l0,0
		c0.2-0.1,0.3-0.2,0.4-0.3l0,0l0,0c0.2-0.2,0.3-0.5,0.3-0.7l0,0l0,0c0-0.2,0-0.3-0.1-0.4l0,0l0,0C19.9,5.4,19.8,5.3,19.7,5.3z
		 M20.7,8.3L20.7,8.3C20.5,8.6,20.2,8.9,20,9l0,0l0,0c-0.3,0.1-0.6,0.2-0.9,0.2l0,0l0,0c-0.3,0-0.6-0.2-0.9-0.5l0,0l0,0
		c-0.3-0.3-0.4-0.7-0.4-1.3l0,0l0,0c0-0.6,0.2-1.2,0.5-1.7l0,0l0,0c0.2-0.2,0.4-0.4,0.7-0.6l0,0l0,0C19.2,5,19.5,5,19.8,5l0,0l0,0
		c0.7,0,1.1,0.3,1.1,1l0,0l0,0c0,0.4-0.2,0.7-0.5,1l0,0l0,0c-0.3,0.2-0.7,0.4-1.1,0.4l0,0l0,0c-0.3,0-0.5,0-0.8-0.1l0,0l0,0
		c0,0,0,0.1,0,0.2l0,0l0,0c0,0.8,0.3,1.3,0.8,1.3l0,0l0,0c0.5,0,0.9-0.2,1.2-0.7l0,0l0,0C20.6,8.1,20.7,8.1,20.7,8.3L20.7,8.3z
		 M20.5,4.4L20.5,4.4L20.5,4.4c0,0.1,0,0.1-0.1,0.1l0,0l0,0c0,0-0.1,0.1-0.2,0.1l0,0l0,0c-0.2-0.2-0.4-0.4-0.7-0.6l0,0l0,0
		c-0.3-0.2-0.5-0.4-0.8-0.4l0,0l0,0c0-0.2,0.1-0.4,0.3-0.6l0,0l0,0c0.3,0.1,0.5,0.3,0.8,0.6l0,0l0,0C20.2,3.9,20.4,4.2,20.5,4.4z
		 M22.7,6.8L22.7,6.8c0.2-0.6,0.4-1.1,0.6-1.4l0,0l0,0C23.5,5.1,23.7,5,23.9,5l0,0l0,0c0.2,0,0.4,0.1,0.5,0.2l0,0l0,0
		c0.1,0.2,0.2,0.4,0.2,0.6l0,0l0,0c0,0.2-0.1,0.4-0.2,0.6l0,0l0,0c-0.1,0.2-0.3,0.3-0.5,0.3l0,0l0,0c-0.1,0-0.1,0-0.2,0l0,0l0,0
		c0.2-0.2,0.2-0.5,0.2-0.7l0,0l0,0c0-0.2-0.1-0.3-0.2-0.3l0,0l0,0c-0.1,0-0.2,0.1-0.3,0.2l0,0l0,0C23.2,6,23.1,6.2,23,6.4l0,0l0,0
		c-0.1,0.2-0.2,0.5-0.3,0.9l0,0l0,0c-0.1,0.4-0.1,0.8-0.1,1.2l0,0l0,0c0,0,0,0.3,0,0.6l0,0l0,0c-0.1,0-0.2,0-0.2,0l0,0l0,0
		c-0.4,0-0.6-0.2-0.6-0.6l0,0l0,0c0-0.1,0.1-0.5,0.2-1.1l0,0l0,0c0.1-0.6,0.1-1.2,0.1-1.5l0,0l0,0c0-0.4,0-0.7-0.1-1.1l0,0l0,0
		c0.3,0.1,0.5,0.3,0.6,0.5l0,0l0,0c0.1,0.2,0.2,0.4,0.2,0.7l0,0l0,0C22.7,6.3,22.7,6.5,22.7,6.8L22.7,6.8z M26.9,5.3L26.9,5.3
		L26.9,5.3c-0.3,0-0.5,0.2-0.7,0.5l0,0l0,0C26,6.2,25.8,6.6,25.8,7l0,0H26l0,0c0.3,0,0.5,0,0.7-0.1l0,0l0,0c0.2-0.1,0.3-0.2,0.4-0.3
		l0,0l0,0c0.2-0.2,0.3-0.5,0.3-0.7l0,0l0,0c0-0.2,0-0.3-0.1-0.4l0,0l0,0C27.1,5.4,27,5.3,26.9,5.3z M27.9,8.3L27.9,8.3
		c-0.2,0.4-0.5,0.6-0.7,0.8l0,0l0,0c-0.3,0.1-0.6,0.2-0.9,0.2l0,0l0,0c-0.3,0-0.6-0.2-0.9-0.5l0,0l0,0C25.1,8.5,25,8,25,7.5l0,0l0,0
		c0-0.6,0.2-1.2,0.5-1.7l0,0l0,0c0.2-0.2,0.4-0.4,0.7-0.6l0,0l0,0C26.4,5,26.7,5,27,5l0,0l0,0c0.7,0,1.1,0.3,1.1,1l0,0l0,0
		c0,0.4-0.2,0.7-0.5,1l0,0l0,0c-0.3,0.2-0.7,0.4-1.1,0.4l0,0l0,0c-0.3,0-0.5,0-0.8-0.1l0,0l0,0c0,0,0,0.1,0,0.2l0,0l0,0
		c0,0.8,0.3,1.3,0.8,1.3l0,0l0,0c0.5,0,0.9-0.2,1.2-0.7l0,0l0,0C27.8,8.1,27.9,8.1,27.9,8.3L27.9,8.3z"/>
</g>
<g id="_x39_7221fff-9f5f-45e5-b2fa-fe4d6ef25df3" transform="matrix(1.2101654687240968,0,0,1.2101654687240968,-4.368992009843154,-14.702727655207887)">
	<path class="st0" d="M24,29.6L24,29.6c-0.4-0.7-1-1.2-1.8-1.4h-0.1c-0.4-0.1-0.8-0.2-1.3-0.2c-1.2-0.2-2.3-0.6-3.3-1.2
		c-0.2-0.1-0.4-0.1-0.5,0.1C17,27,17,27.2,17.2,27.3c0.3,0.2,0.7,0.4,1,0.6c0,0.1,0,0.1-0.1,0.2c-0.5,1.7,0.5,3.4,2.1,3.9
		c0.3,0.1,0.6,0.1,0.9,0.1c0.9,0,1.8-0.4,2.4-1.2c0,0.5,0,1-0.1,1.5c-0.1,0.2,0,0.4,0.2,0.5c0,0,0,0,0,0c0,0,0.1,0,0.1,0
		c0.2,0,0.3-0.1,0.4-0.3c0.2-0.7,0.2-1.4,0.1-2.1C24.3,30.2,24.2,29.9,24,29.6z M21.8,28.8c0,0.1,0,0.2,0,0.3
		c-0.1,0.4-0.5,0.6-0.8,0.5c-0.4-0.1-0.6-0.5-0.5-0.8c0,0,0-0.1,0-0.1l0.3,0C21.1,28.7,21.4,28.7,21.8,28.8L21.8,28.8z M22.2,31
		c-0.6,0.3-1.2,0.3-1.8,0.2c-1.2-0.4-2-1.7-1.6-2.9v-0.1c0.3,0.1,0.6,0.2,0.9,0.3v0c-0.2,0.8,0.2,1.6,0.9,1.8
		c0.8,0.2,1.6-0.2,1.8-0.9c0-0.1,0-0.2,0.1-0.3c0.3,0.2,0.6,0.4,0.8,0.7C23.1,30.3,22.7,30.7,22.2,31L22.2,31z M36.1,28
		c0-0.1,0-0.1-0.1-0.2c0.4-0.2,0.7-0.4,1-0.6c0.2-0.1,0.2-0.4,0.1-0.5c-0.1-0.2-0.3-0.2-0.5-0.1c-1,0.6-2.1,1.1-3.3,1.2
		c-0.4,0-0.9,0.1-1.3,0.2H32c-0.8,0.2-1.4,0.7-1.8,1.4v0c-0.2,0.3-0.3,0.7-0.3,1c-0.1,0.7,0,1.4,0.1,2.1c0.1,0.2,0.2,0.3,0.4,0.3
		c0.2,0,0.4-0.2,0.4-0.4c0,0,0-0.1,0-0.1c-0.1-0.5-0.1-1-0.1-1.5c0.6,0.7,1.5,1.2,2.4,1.2c0.3,0,0.6,0,0.9-0.1
		C35.7,31.4,36.6,29.7,36.1,28C36.1,28,36.1,28,36.1,28z M33.4,28.6l0.3,0c0,0,0,0.1,0,0.1c0.1,0.4-0.1,0.7-0.5,0.8
		c-0.3,0.1-0.7-0.1-0.8-0.4c0-0.1,0-0.2,0-0.3C32.8,28.7,33.1,28.7,33.4,28.6L33.4,28.6z M33.8,31.1c-0.6,0.2-1.2,0.1-1.8-0.2
		c-0.5-0.3-0.8-0.7-1-1.2c0.2-0.3,0.5-0.5,0.8-0.7c0,0.1,0,0.1,0,0.2c0.2,0.6,0.7,1,1.4,1c0.8,0,1.4-0.7,1.4-1.5c0-0.1,0-0.2,0-0.3
		v0c0.3-0.1,0.6-0.2,0.9-0.3v0.1C35.7,29.5,35,30.8,33.8,31.1z"/>
	<path class="st0" d="M25.2,28.9c-0.1-1.2-1-1.9-2.6-2c-0.9-0.1-1.7-0.4-2.4-0.9C20,26,19.8,26,19.7,26.2c-0.1,0.2-0.1,0.4,0.1,0.5
		c0.8,0.5,1.8,0.9,2.8,1c0.7,0.1,1.9,0.3,1.9,1.3c0,0.2,0.2,0.4,0.4,0.4h0C25.1,29.3,25.3,29.2,25.2,28.9z M31.9,27.7
		c1-0.1,1.9-0.5,2.8-1c0.2-0.1,0.2-0.4,0.1-0.5c-0.1-0.2-0.4-0.2-0.5-0.1c-0.7,0.5-1.5,0.8-2.4,0.9c-1.6,0.1-2.6,0.9-2.6,2
		c0,0.2,0.1,0.4,0.4,0.4c0,0,0,0,0,0h0c0.2,0,0.4-0.2,0.4-0.4C30,28,31.2,27.8,31.9,27.7z M19.2,25c0.1,0.2,0.4,0.2,0.5,0.1
		s0.2-0.4,0.1-0.5c0,0,0,0,0,0l-1.6-2c-0.1-0.2-0.4-0.2-0.5-0.1c-0.2,0.1-0.2,0.4-0.1,0.5c0,0,0,0,0,0L19.2,25z M21,23.9
		c0.1,0.1,0.2,0.2,0.4,0.2c0.2,0,0.4-0.2,0.4-0.4c0,0,0-0.1,0-0.1L21,21.8c-0.1-0.2-0.3-0.3-0.5-0.2c-0.2,0.1-0.3,0.3-0.2,0.5
		L21,23.9z M23,24c0.2,0,0.4-0.2,0.4-0.4l0.1-1.6c0-0.2-0.1-0.4-0.4-0.4c0,0,0,0,0,0c-0.2,0-0.4,0.1-0.4,0.3c0,0,0,0,0,0l-0.1,1.6
		C22.6,23.8,22.8,24,23,24C23,24,23,24,23,24z"/>
	<path class="st0" d="M50.4,37.2c-2-0.6-6.7-0.6-10.5-0.4c2.6-3.2,2.6-6.4,2.1-7.8c-0.3-1.1-0.9-3.9-0.2-5c0.1-0.2,0.4-0.4,0.6-0.4
		c0.9-0.1,1.1-1.1,1.2-1.8c0-0.3,0.1-0.5,0.2-0.8c0.2-0.3,0.4-0.5,0.6-0.7c0.7-0.6,1.3-1.3,1.6-2.2c0.8-2-0.3-3-0.3-3
		c0,0-0.1-0.1-0.1-0.1h-0.1c-0.8-0.2-1.7-0.1-2.5,0.4c-0.3,0.2-0.8,0.4-1.4,0.6c-1.4,0.7-3,0.4-4.1-0.7c-2.3-2.2-3.9-2.9-10.3-2.9
		s-8,0.6-10.3,2.9c-1.1,1.1-2.7,1.4-4.1,0.7c-0.5-0.2-1-0.4-1.4-0.6c-0.7-0.5-1.6-0.6-2.5-0.4H8.8c-0.1,0-0.1,0-0.1,0.1
		c0,0-1.1,1-0.3,3c0.4,0.8,0.9,1.6,1.6,2.2c0.3,0.2,0.5,0.4,0.6,0.7c0.1,0.3,0.1,0.5,0.1,0.8c0.1,0.8,0.3,1.7,1.2,1.8
		c0.3,0,0.5,0.2,0.6,0.4c0.7,1.1,0.1,3.9-0.2,5c-0.5,1.5-0.4,4.6,2.1,7.8c-3.8-0.2-8.5-0.2-10.5,0.4c-0.2,0.1-0.3,0.3-0.2,0.5
		C3.7,37.9,3.9,38,4.1,38c2.1-0.7,7.7-0.5,10.9-0.3h0.1l0.3,0.4c-3.9,0.1-6.6,0.3-8,0.8c-0.2,0.1-0.3,0.3-0.2,0.5
		c0.1,0.2,0.3,0.3,0.5,0.2c0,0,0,0,0,0c1.3-0.5,4.3-0.7,8.5-0.8c0.2,0.2,0.4,0.3,0.5,0.5c-3.3,0.2-8.7,0.6-10.8,1.5
		c-0.2,0.1-0.3,0.3-0.2,0.5c0.1,0.2,0.3,0.2,0.5,0.2c2.1-0.9,8.3-1.4,11.4-1.5l0.5,0.4l0.1,0c-3.2,0.3-5.4,0.7-6.6,1.2
		c-0.2,0.1-0.3,0.3-0.2,0.5c0.1,0.2,0.3,0.2,0.5,0.2c1.1-0.5,3.3-0.9,6.5-1.2c0,0.9,0.1,1.9,0.3,2.8c0.8,2.2,2,2.8,3.3,2.9
		c0.2,0.4,0.5,0.7,0.8,0.9c-0.7,0.6-1.3,1.4-1.7,2.3c-0.1,0.2,0,0.4,0.2,0.5c0.2,0.1,0.4,0,0.5-0.2c0.1-0.4,0.6-1,1.7-2.1
		c0.3,0.2,0.7,0.3,1,0.4c-0.2,0.6-0.4,1.2-0.5,1.8c0,0.2,0.2,0.4,0.4,0.4c0,0,0,0,0,0c0.2,0,0.4-0.2,0.4-0.4
		c0.1-0.6,0.2-1.1,0.5-1.6c1.1,0.2,2.2,0.2,3.4,0c0.2,0.5,0.4,1.1,0.5,1.6c0,0.2,0.2,0.4,0.4,0.4c0.2,0,0.4-0.2,0.4-0.4c0,0,0,0,0,0
		c-0.1-0.6-0.2-1.2-0.5-1.8c0.4-0.1,0.7-0.2,1-0.4c1.1,1.1,1.5,1.8,1.7,2.1c0.1,0.2,0.3,0.3,0.5,0.2c0.2-0.1,0.3-0.3,0.2-0.5
		c-0.4-0.9-1-1.6-1.7-2.3c0.3-0.3,0.6-0.6,0.8-0.9c1.3-0.1,2.5-0.7,3.3-2.9c0.2-0.9,0.4-1.9,0.3-2.8c3.2,0.3,5.5,0.7,6.5,1.2
		c0.2,0.1,0.4,0,0.5-0.2s0-0.4-0.2-0.5c0,0,0,0-0.1,0c-1.1-0.5-3.4-0.9-6.7-1.2l0.4-0.3l0.2-0.1c3.1,0.2,9.3,0.6,11.5,1.5
		c0.2,0.1,0.4,0,0.5-0.2c0.1-0.2,0-0.4-0.2-0.5c-2.1-0.9-7.5-1.3-10.8-1.5c0.2-0.1,0.4-0.3,0.6-0.5c4.2,0,7.2,0.3,8.5,0.8
		c0.2,0.1,0.4,0,0.5-0.2c0.1-0.2,0-0.4-0.2-0.5c-1.3-0.5-4-0.8-8-0.8l0.3-0.4h0.1c3.2-0.2,8.8-0.3,10.9,0.3c0.2,0.1,0.4-0.1,0.5-0.3
		C50.7,37.5,50.6,37.3,50.4,37.2z M28.8,46.9c-0.1-0.2-0.3-0.2-0.5-0.1c-0.2,0.1-0.2,0.3-0.1,0.5c0.1,0.1,0.2,0.4,0.3,0.6
		c-0.9,0.1-1.8,0.1-2.7,0c0.2-0.4,0.3-0.6,0.3-0.6c0.1-0.2,0-0.4-0.1-0.5c-0.2-0.1-0.4,0-0.5,0.1c0,0-0.2,0.4-0.4,0.9
		c-0.7-0.2-1.3-0.5-1.8-1h1.2c1.1,0,2.2-0.6,2.7-1.6c0.5,1,1.6,1.6,2.7,1.6h1.2c-0.5,0.5-1.1,0.9-1.8,1C29,47.3,28.8,47,28.8,46.9
		L28.8,46.9z M37.6,38.1L37.6,38.1c-0.5,0.4-0.9,0.7-1.4,1.1h-0.4c0.1-0.9,0.2-1.7,0.5-1.9c0.2-0.1,0.2-0.4,0.1-0.5
		c-0.1-0.2-0.4-0.2-0.5-0.1c-0.5,0.4-0.7,1.4-0.8,2.5h-0.3c-0.2,0-0.4,0.1-0.4,0.4c0,0,0,0,0,0c0,0.2,0.2,0.4,0.4,0.4c0,0,0,0,0,0
		H35v0.4h-0.1c-0.2,0-0.4,0.1-0.4,0.3c0,0.2,0.1,0.4,0.3,0.4h0.1c0,0.9-0.1,1.7-0.3,2.6c-0.7,1.9-1.6,2.3-2.8,2.4h-1.9
		c-1.3,0-2.3-1-2.3-2.3c0.2-0.2,0.4-0.3,0.6-0.4c0.5-0.3,1.3-0.8,1-1.4c-0.1-0.2,0-0.3,0.9-0.9l0.3-0.2c0.4-0.2,0.6-0.6,0.7-1
		c0-0.3-0.2-0.6-0.5-0.8c-0.2-0.1-0.4-0.1-0.5,0.1c-0.1,0.2-0.1,0.4,0.1,0.5c0,0,0.1,0.1,0.1,0.2c0,0.1-0.1,0.2-0.3,0.4l-0.3,0.2
		c-0.8,0.6-1.5,1-1.1,1.8c0,0.1-0.5,0.4-0.7,0.5c-0.2,0.1-0.4,0.3-0.6,0.4c-0.2-0.1-0.4-0.3-0.6-0.4c-0.2-0.1-0.5-0.3-0.7-0.5
		c0.4-0.9-0.3-1.3-1.1-1.9L24.4,40c-0.2-0.2-0.3-0.3-0.3-0.4c0-0.1,0.1-0.2,0.1-0.2c0.2-0.1,0.2-0.4,0.1-0.5
		c-0.1-0.2-0.3-0.2-0.5-0.1c-0.3,0.2-0.5,0.5-0.5,0.8c0,0.4,0.3,0.8,0.7,1l0.3,0.2c0.9,0.6,0.9,0.7,0.9,0.9c-0.3,0.7,0.5,1.1,1,1.4
		c0.2,0.1,0.4,0.3,0.6,0.4c0,1.3-1,2.3-2.3,2.3h-0.8c-1.9,0-3.1,0.1-4-2.4c-0.2-0.8-0.3-1.7-0.3-2.6h0.1c0.2,0,0.4-0.2,0.4-0.4
		c0-0.2-0.2-0.4-0.4-0.4h-0.1v-0.4h0.3c0.2,0,0.4-0.2,0.4-0.4c0-0.2-0.2-0.4-0.4-0.4h-0.3c-0.1-1.1-0.3-2.1-0.8-2.5
		c-0.2-0.1-0.4-0.1-0.6,0.1c-0.1,0.2-0.1,0.4,0.1,0.6c0.3,0.3,0.5,1,0.5,1.9H18c-0.4-0.3-0.9-0.7-1.3-1c0,0,0-0.1-0.1-0.1
		c-0.1-0.1-0.3-0.2-0.4-0.4l1.2,0.1h0c0.2,0,0.4-0.2,0.4-0.4c0-0.2-0.2-0.4-0.4-0.4c0,0-0.8-0.1-2.1-0.1c-2.8-3.2-2.9-6.3-2.4-7.7
		c0,0,1.2-3.9,0.1-5.6c-0.2-0.4-0.7-0.7-1.1-0.7c-0.3,0-0.4-0.5-0.5-1.2c0-0.3-0.1-0.6-0.2-0.9c-0.2-0.4-0.5-0.7-0.8-1
		c-0.6-0.5-1.1-1.1-1.4-1.9c-0.5-1.2-0.1-1.9,0.1-2.1c0.4,0,0.8,0.1,1.1,0.3c0,0,3.9,2.8,5.5,2.8h0.2c-1.5,1.1-2.4,2.5-2.4,3.9
		c0,0.2,0.2,0.4,0.4,0.4c0.2,0,0.4-0.2,0.4-0.4c0-1.4,1.3-3,3.4-4c0.8-0.1,1.6-0.4,2.3-0.8c0.2-0.1,0.3-0.3,0.2-0.5
		c-0.1-0.2-0.3-0.3-0.5-0.2c0,0,0,0,0,0c-1.2,0.6-2.5,0.9-3.9,0.8c-0.6,0-1.9-0.6-3-1.3c1.6,0.7,3.5,0.4,4.8-0.9
		c2.1-2,3.3-2.6,9.7-2.6s7.7,0.7,9.7,2.6c0.8,0.8,1.8,1.2,3,1.3c0.6,0,1.2-0.1,1.8-0.3c-1.1,0.7-2.4,1.3-3,1.3
		c-1.3,0.1-2.7-0.2-3.9-0.8c-0.2-0.1-0.4,0-0.5,0.2c-0.1,0.2,0,0.4,0.1,0.5c0.7,0.4,1.5,0.7,2.3,0.8c2.1,1,3.4,2.6,3.4,4
		c0,0.2,0.2,0.4,0.4,0.4c0.2,0,0.4-0.2,0.4-0.4c0-1.4-0.9-2.8-2.4-3.9h0.2c1.7,0,5.5-2.8,5.5-2.8c0.3-0.2,0.7-0.3,1.1-0.3
		c0.2,0.2,0.5,0.9,0.1,2.1c-0.3,0.7-0.8,1.4-1.4,1.9c-0.4,0.3-0.6,0.6-0.8,1c-0.1,0.3-0.2,0.6-0.2,0.9c-0.1,0.7-0.2,1.1-0.5,1.2
		c-0.5,0.1-0.9,0.3-1.2,0.7c-1.1,1.7,0.1,5.6,0.1,5.6c0.4,1.4,0.4,4.5-2.4,7.7c-1.2,0.1-2.1,0.1-2.1,0.1c-0.2,0-0.4,0.2-0.4,0.4
		c0,0.2,0.2,0.4,0.4,0.4h0l1.2-0.1C37.9,37.8,37.7,37.9,37.6,38.1z"/>
	<path class="st0" d="M34.7,25.2c0.1,0,0.2-0.1,0.3-0.1l1.6-2c0.1-0.2,0.1-0.4,0-0.5c-0.2-0.1-0.4-0.1-0.5,0c0,0,0,0,0,0l-1.6,2
		c-0.1,0.2-0.1,0.4,0.1,0.5C34.5,25.1,34.6,25.2,34.7,25.2L34.7,25.2z M32.8,24.1c0,0,0.1,0,0.1,0c0.2,0,0.3-0.1,0.4-0.2L34,22
		c0.1-0.2,0-0.4-0.2-0.5c-0.2-0.1-0.4,0-0.5,0.2l-0.7,1.9C32.5,23.8,32.6,24,32.8,24.1C32.8,24.1,32.8,24.1,32.8,24.1z M31.2,24
		c0.2,0,0.4-0.2,0.4-0.4c0,0,0,0,0,0l-0.1-1.6c0-0.2-0.2-0.4-0.4-0.4c-0.2,0-0.4,0.2-0.4,0.4l0.1,1.6C30.8,23.8,31,24,31.2,24
		C31.2,24,31.2,24,31.2,24z"/>
	<circle class="st0" cx="21" cy="41.7" r="0.5"/>
	<circle class="st0" cx="21.2" cy="43.6" r="0.5"/>
	<circle class="st0" cx="22.6" cy="44.8" r="0.5"/>
	<circle class="st0" cx="23.1" cy="42.9" r="0.5"/>
	<circle class="st0" cx="24.6" cy="43.9" r="0.5"/>
	<circle class="st0" cx="33.2" cy="41.7" r="0.5"/>
	<circle class="st0" cx="33" cy="43.6" r="0.5"/>
	<circle class="st0" cx="31.6" cy="44.8" r="0.5"/>
	<circle class="st0" cx="31.2" cy="42.9" r="0.5"/>
	<circle class="st0" cx="29.7" cy="43.9" r="0.5"/>
	<path class="st0" d="M28.9,32.9c-0.2,0-0.4,0.1-0.4,0.4c0,0,0,0,0,0c-0.1,1.1-0.6,2-1.4,2.8c-0.8-0.7-1.3-1.7-1.4-2.8
		c0-0.2-0.2-0.4-0.4-0.4c-0.2,0-0.4,0.2-0.4,0.4c0.2,1.4,0.9,2.6,1.9,3.5c0.1,0.1,0.2,0.1,0.2,0.1c0.1,0,0.2,0,0.2-0.1
		c1-0.9,1.7-2.2,1.9-3.5C29.3,33.1,29.1,32.9,28.9,32.9z M22.2,34.2c-0.2-0.1-0.4,0-0.5,0.1c-0.1,0.2-0.2,0.4-0.4,0.6
		c-0.7,1-1.7,2.5-0.3,4.1c0.2,0.1,0.4,0.1,0.5,0c0.1-0.1,0.1-0.3,0-0.5c-1-1.1-0.5-2,0.3-3.1c0.1-0.2,0.3-0.4,0.4-0.6
		C22.4,34.6,22.4,34.4,22.2,34.2C22.2,34.2,22.2,34.2,22.2,34.2z M32.6,34.4c-0.1-0.2-0.3-0.2-0.5-0.1c-0.2,0.1-0.2,0.3-0.1,0.5
		c0.1,0.2,0.3,0.4,0.4,0.6c0.8,1.2,1.3,2.1,0.3,3.1c-0.2,0.1-0.2,0.4,0,0.5c0.1,0.2,0.4,0.2,0.5,0c0,0,0,0,0.1-0.1
		c1.5-1.6,0.4-3.1-0.3-4.1C32.8,34.7,32.7,34.6,32.6,34.4z M23,39.3c0.1-0.2,0-0.4-0.2-0.5c-0.2-0.1-0.4,0-0.5,0.2
		c-0.3,1,0.1,2,1,2.5c0.2,0.1,0.4,0,0.5-0.1c0.1-0.2,0-0.4-0.1-0.5C23,40.5,22.8,39.9,23,39.3z M31,41.5c0.9-0.5,1.3-1.5,1-2.5
		c-0.1-0.2-0.3-0.3-0.5-0.2s-0.3,0.3-0.2,0.5l0,0c0.2,0.6-0.1,1.2-0.6,1.6c-0.2,0.1-0.2,0.3-0.1,0.5C30.6,41.5,30.8,41.6,31,41.5
		L31,41.5z M28.6,39.3c-0.7,0.8-2,0.9-2.8,0.2c-0.1-0.1-0.1-0.1-0.2-0.2c-0.1-0.2-0.4-0.2-0.6,0c-0.2,0.1-0.2,0.4,0,0.6
		c1,1.1,2.7,1.3,3.8,0.3c0.1-0.1,0.2-0.2,0.3-0.3c0.1-0.2,0.1-0.4,0-0.6C29,39.2,28.7,39.2,28.6,39.3L28.6,39.3L28.6,39.3z
		 M17.1,31.8c-0.2-0.1-0.4-0.1-0.5,0.1s-0.1,0.4,0.1,0.5c0,0,0,0,0.1,0c1.3,0.7,1.9,1.8,1.9,2.2c0,0.2,0.2,0.4,0.4,0.4
		s0.4-0.2,0.4-0.4C19.5,33.9,18.6,32.6,17.1,31.8z M37.7,32c-0.1-0.2-0.3-0.2-0.5-0.2c-1.5,0.8-2.4,2.1-2.4,2.9
		c0,0.2,0.2,0.4,0.4,0.4c0.2,0,0.4-0.2,0.4-0.4c0-0.4,0.6-1.5,1.9-2.2C37.7,32.4,37.8,32.2,37.7,32C37.7,32,37.7,32,37.7,32z"/>
</g>
<g id="_x35_4c8ca41-f910-4170-8f82-6d26474b6f31" transform="matrix(0.9559017435520097,0,0,0.9559017435520097,130.7275691282621,56.520518426468094)">
	<path d="M-63-22.1l-0.6-1.5h-2.3l-0.6,1.5h-0.4l1.9-4.7h0.4l1.9,4.7H-63z M-65.7-23.9h2l-0.8-2.1l-0.2-0.5h0l-0.2,0.5L-65.7-23.9z
		 M-56.4-24.4h1.9v2.3h-0.3l0-0.8l0,0c-0.1,0.3-0.3,0.5-0.6,0.7l0,0l0,0c-0.3,0.2-0.6,0.2-1,0.2l0,0l0,0c-0.4,0-0.8-0.1-1.1-0.3l0,0
		l0,0c-0.3-0.2-0.6-0.5-0.7-0.9l0,0l0,0c-0.2-0.4-0.3-0.8-0.3-1.3l0,0l0,0c0-0.5,0.1-0.9,0.3-1.3l0,0l0,0c0.2-0.4,0.4-0.7,0.8-0.9
		l0,0l0,0c0.3-0.2,0.7-0.3,1.1-0.3l0,0l0,0c0.5,0,0.9,0.1,1.2,0.3l0,0l0,0c0.3,0.2,0.5,0.5,0.7,0.9l0,0l-0.3,0.2l0,0
		c-0.1-0.3-0.3-0.6-0.6-0.7l0,0l0,0c-0.3-0.2-0.6-0.3-1-0.3l0,0l0,0c-0.4,0-0.7,0.1-0.9,0.3l0,0l0,0c-0.3,0.2-0.5,0.4-0.6,0.7l0,0
		l0,0c-0.2,0.3-0.2,0.7-0.2,1.1l0,0l0,0c0,0.7,0.2,1.2,0.5,1.5l0,0l0,0c0.3,0.4,0.7,0.6,1.3,0.6l0,0l0,0c0.3,0,0.6-0.1,0.9-0.2l0,0
		l0,0c0.2-0.1,0.4-0.3,0.5-0.5l0,0l0,0c0.1-0.2,0.2-0.5,0.2-0.7l0,0v-0.3h-1.6V-24.4z M-49.3-22.4h3v0.3h-3.4v-4.7h3.2v0.3h-2.9v1.8
		h2.3v0.3h-2.3V-22.4z M-38-26.9v4.7h-0.4l-2.5-3.7l-0.3-0.6h0l0,0.6v3.8h-0.3v-4.7h0.5l2.5,3.7l0.4,0.6l0-0.6v-3.8H-38z
		 M-29.2-23.3L-29.2-23.3c-0.1,0.4-0.4,0.7-0.7,0.9l0,0l0,0c-0.3,0.2-0.7,0.3-1.2,0.3l0,0l0,0c-0.4,0-0.8-0.1-1.1-0.3l0,0l0,0
		c-0.3-0.2-0.6-0.5-0.8-0.9l0,0l0,0c-0.2-0.4-0.3-0.8-0.3-1.3l0,0l0,0c0-0.5,0.1-0.9,0.3-1.3l0,0l0,0c0.2-0.4,0.4-0.7,0.8-0.9l0,0
		l0,0c0.3-0.2,0.7-0.3,1.1-0.3l0,0l0,0c0.9,0,1.6,0.4,1.8,1.2l0,0l-0.4,0.2l0,0c-0.1-0.3-0.3-0.6-0.5-0.8l0,0l0,0
		c-0.2-0.2-0.6-0.3-0.9-0.3l0,0l0,0c-0.4,0-0.7,0.1-0.9,0.3l0,0l0,0c-0.3,0.2-0.5,0.4-0.6,0.7l0,0l0,0c-0.1,0.3-0.2,0.7-0.2,1.1l0,0
		l0,0c0,0.4,0.1,0.8,0.2,1.1l0,0l0,0c0.1,0.3,0.3,0.6,0.6,0.7l0,0l0,0c0.3,0.2,0.6,0.3,0.9,0.3l0,0l0,0c0.4,0,0.7-0.1,1-0.3l0,0l0,0
		c0.3-0.2,0.5-0.5,0.6-0.8l0,0L-29.2-23.3z M-24.2-22.4h3v0.3h-3.4v-4.7h3.2v0.3h-2.9v1.8h2.3v0.3h-2.3V-22.4z M-9.2-26.9L-9.2-26.9
		c0.8,0,1.3,0.2,1.7,0.6l0,0l0,0c0.4,0.4,0.6,1,0.6,1.7l0,0l0,0c0,0.8-0.2,1.4-0.6,1.8l0,0l0,0c-0.4,0.4-1,0.6-1.7,0.6l0,0h-1.5
		v-4.7H-9.2z M-9.2-22.4L-9.2-22.4c0.6,0,1.1-0.2,1.5-0.5l0,0l0,0c0.3-0.4,0.5-0.9,0.5-1.5l0,0l0,0c0-0.6-0.2-1.1-0.5-1.5l0,0l0,0
		c-0.3-0.3-0.8-0.5-1.5-0.5l0,0h-1.2v4.1H-9.2z M-1.7-22.4h3v0.3H-2v-4.7h3.2v0.3h-2.9v1.8h2.3v0.3h-2.3V-22.4z M14.1-25.4l-1,3.3
		h-0.4l-1.5-4.7h0.4l1.3,4.4l1.2-4.4h0.4l1.2,4.5l1.3-4.5h0.4l-1.5,4.7h-0.4l-1-3.3l-0.3-1h0L14.1-25.4z M22.5-22.4h3v0.3h-3.4v-4.7
		h3.2v0.3h-2.9v1.8h2.3v0.3h-2.3V-22.4z M30.1-22.1v-4.7h1.7l0,0c0.5,0,0.9,0.1,1.2,0.3l0,0l0,0c0.3,0.2,0.4,0.5,0.4,0.9l0,0l0,0
		c0,0.3-0.1,0.5-0.2,0.7l0,0l0,0c-0.2,0.2-0.4,0.3-0.6,0.4l0,0v0l0,0c0.3,0,0.6,0.2,0.7,0.4l0,0l0,0c0.2,0.2,0.3,0.5,0.3,0.7l0,0
		l0,0c0,0.4-0.1,0.7-0.4,0.9l0,0l0,0c-0.3,0.2-0.7,0.3-1.2,0.3l0,0H30.1z M30.5-24.7h1.3l0,0c0.8,0,1.2-0.3,1.2-0.9l0,0l0,0
		c0-0.6-0.4-0.9-1.2-0.9l0,0h-1.3V-24.7z M30.5-22.4h1.4l0,0c0.4,0,0.7-0.1,0.9-0.2l0,0l0,0c0.2-0.2,0.3-0.4,0.3-0.7l0,0l0,0
		c0-0.3-0.1-0.5-0.3-0.7l0,0l0,0c-0.2-0.2-0.5-0.2-0.9-0.2l0,0h-1.4V-22.4z M45.6-26.9L45.6-26.9c0.8,0,1.3,0.2,1.7,0.6l0,0l0,0
		c0.4,0.4,0.6,1,0.6,1.7l0,0l0,0c0,0.8-0.2,1.4-0.6,1.8l0,0l0,0c-0.4,0.4-1,0.6-1.7,0.6l0,0h-1.5v-4.7H45.6z M45.6-22.4L45.6-22.4
		c0.6,0,1.1-0.2,1.5-0.5l0,0l0,0c0.3-0.4,0.5-0.9,0.5-1.5l0,0l0,0c0-0.6-0.2-1.1-0.5-1.5l0,0l0,0c-0.3-0.3-0.8-0.5-1.5-0.5l0,0h-1.2
		v4.1H45.6z M53.1-22.4h3v0.3h-3.4v-4.7H56v0.3h-2.9v1.8h2.3v0.3h-2.3V-22.4z M62.2-26.9L62.2-26.9c0.9,0,1.5,0.3,1.8,1l0,0
		l-0.3,0.3l0,0c-0.1-0.3-0.3-0.6-0.5-0.7l0,0l0,0c-0.2-0.2-0.5-0.2-0.9-0.2l0,0l0,0c-0.3,0-0.5,0-0.7,0.1l0,0l0,0
		c-0.2,0.1-0.4,0.2-0.5,0.3l0,0l0,0c-0.1,0.2-0.2,0.3-0.2,0.5l0,0l0,0c0,0.2,0,0.3,0.1,0.5l0,0l0,0c0.1,0.1,0.2,0.2,0.5,0.3l0,0l0,0
		c0.2,0.1,0.5,0.2,0.9,0.2l0,0l0,0c0.6,0.1,1.1,0.3,1.3,0.5l0,0l0,0c0.3,0.2,0.4,0.5,0.4,0.8l0,0l0,0c0,0.3-0.1,0.5-0.2,0.7l0,0l0,0
		c-0.1,0.2-0.4,0.3-0.6,0.5l0,0l0,0c-0.3,0.1-0.6,0.2-0.9,0.2l0,0l0,0c-0.5,0-0.9-0.1-1.3-0.3l0,0l0,0c-0.3-0.2-0.6-0.5-0.7-0.8l0,0
		l0.3-0.2l0,0c0.1,0.3,0.3,0.6,0.6,0.8l0,0l0,0c0.3,0.2,0.6,0.3,1.1,0.3l0,0l0,0c0.4,0,0.7-0.1,1-0.3l0,0l0,0
		c0.3-0.2,0.4-0.4,0.4-0.7l0,0l0,0c0-0.3-0.1-0.5-0.3-0.6l0,0l0,0c-0.2-0.2-0.6-0.3-1.1-0.4l0,0l0,0c-0.4-0.1-0.8-0.2-1.1-0.3l0,0
		l0,0c-0.3-0.1-0.4-0.2-0.6-0.4l0,0l0,0c-0.1-0.2-0.2-0.4-0.2-0.6l0,0l0,0c0-0.2,0.1-0.5,0.2-0.7l0,0l0,0c0.1-0.2,0.3-0.4,0.6-0.5
		l0,0l0,0C61.5-26.9,61.8-26.9,62.2-26.9L62.2-26.9z M69.1-26.9v4.7h-0.4v-4.7H69.1z M76-24.4h1.9v2.3h-0.3l0-0.8l0,0
		c-0.1,0.3-0.3,0.5-0.6,0.7l0,0l0,0c-0.3,0.2-0.6,0.2-1,0.2l0,0l0,0c-0.4,0-0.8-0.1-1.1-0.3l0,0l0,0c-0.3-0.2-0.6-0.5-0.7-0.9l0,0
		l0,0c-0.2-0.4-0.3-0.8-0.3-1.3l0,0l0,0c0-0.5,0.1-0.9,0.3-1.3l0,0l0,0c0.2-0.4,0.4-0.7,0.8-0.9l0,0l0,0c0.3-0.2,0.7-0.3,1.1-0.3
		l0,0l0,0c0.5,0,0.9,0.1,1.2,0.3l0,0l0,0c0.3,0.2,0.5,0.5,0.7,0.9l0,0l-0.3,0.2l0,0c-0.1-0.3-0.3-0.6-0.6-0.7l0,0l0,0
		c-0.3-0.2-0.6-0.3-1-0.3l0,0l0,0c-0.4,0-0.7,0.1-0.9,0.3l0,0l0,0c-0.3,0.2-0.5,0.4-0.6,0.7l0,0l0,0c-0.1,0.3-0.2,0.7-0.2,1.1l0,0
		l0,0c0,0.7,0.2,1.2,0.5,1.5l0,0l0,0c0.3,0.4,0.7,0.6,1.3,0.6l0,0l0,0c0.3,0,0.6-0.1,0.9-0.2l0,0l0,0c0.2-0.1,0.4-0.3,0.5-0.5l0,0
		l0,0c0.1-0.2,0.2-0.5,0.2-0.7l0,0v-0.3H76V-24.4z M86.5-26.9v4.7H86l-2.5-3.7l-0.3-0.6h0l0,0.6v3.8h-0.3v-4.7h0.5l2.5,3.7l0.4,0.6
		l0-0.6v-3.8H86.5z"/>
</g>
</svg>
